<?xml version="1.0" standalone="no"?>
<!DOCTYPE svg PUBLIC "-//W3C//DTD SVG 20010904//EN"
 "http://www.w3.org/TR/2001/REC-SVG-20010904/DTD/svg10.dtd">
<svg version="1.0" xmlns="http://www.w3.org/2000/svg"
 width="616.000000pt" height="365.000000pt" viewBox="0 0 616.000000 365.000000"
 preserveAspectRatio="xMidYMid meet">

<g transform="translate(0.000000,365.000000) scale(0.100000,-0.100000)"
fill="#000000" stroke="none">
<path d="M4823 3305 c-78 -35 -137 -79 -224 -166 -144 -144 -309 -369 -484
-659 -48 -80 -90 -149 -95 -153 -4 -5 -24 3 -45 17 -20 14 -53 28 -72 32 -44
8 -146 -25 -216 -70 -109 -70 -261 -256 -345 -422 -45 -89 -553 -604 -595
-604 -12 0 -7 62 8 130 33 142 127 344 286 615 194 332 222 393 201 440 -18
39 -59 33 -128 -18 -143 -106 -424 -399 -677 -704 -65 -79 -120 -143 -123
-143 -2 0 2 15 10 33 15 35 77 179 175 406 49 112 59 146 50 157 -14 17 -63
18 -77 2 -9 -11 -44 -93 -155 -355 -17 -42 -40 -69 -110 -129 -237 -204 -336
-254 -361 -181 -26 74 38 216 221 491 134 201 140 218 77 224 -26 2 -36 -7
-99 -92 -88 -120 -165 -245 -220 -361 -49 -104 -65 -162 -65 -238 0 -168 158
-148 401 49 36 30 69 54 72 54 3 0 -16 -54 -44 -119 -27 -66 -49 -124 -49
-130 0 -16 30 -41 50 -41 10 0 41 31 76 78 79 104 220 277 371 452 141 163
477 500 499 500 18 0 0 -38 -94 -195 -154 -260 -250 -439 -293 -547 -62 -157
-81 -226 -86 -309 -5 -79 -4 -88 16 -108 55 -55 127 -8 374 243 164 166 198
196 193 171 -3 -16 -9 -60 -12 -97 -11 -112 32 -146 126 -98 61 31 205 157
309 269 51 56 95 100 97 98 2 -1 -11 -45 -28 -97 -28 -86 -32 -107 -32 -222
-1 -126 -1 -128 27 -155 21 -21 36 -27 66 -27 82 3 265 115 446 273 44 38 81
68 82 67 2 -2 -4 -33 -14 -70 -22 -89 -11 -134 35 -158 30 -14 39 -15 78 -3
80 24 230 149 393 328 29 31 54 57 56 57 8 0 -17 -56 -117 -262 l-101 -208
-76 -52 c-352 -241 -621 -510 -727 -727 -59 -121 -46 -197 36 -222 151 -45
410 210 692 681 42 69 98 171 126 226 45 91 56 104 99 129 97 57 227 149 346
245 148 120 177 147 177 165 0 32 -43 12 -132 -63 -179 -149 -373 -290 -384
-280 -2 3 54 121 126 264 71 142 130 267 130 277 0 15 -51 47 -74 47 -3 0 -50
-54 -105 -119 -201 -238 -362 -390 -460 -434 -58 -25 -70 -14 -52 50 25 97
186 399 342 646 38 60 69 113 69 117 0 13 -42 50 -57 50 -22 0 -214 -304 -301
-476 -44 -86 -61 -104 -288 -289 -131 -107 -260 -191 -310 -201 -69 -13 -81
50 -39 209 32 123 81 246 162 405 116 226 112 222 386 470 503 456 696 674
697 789 0 71 -111 96 -217 48z m163 -40 c18 -46 -57 -145 -281 -374 -184 -188
-504 -485 -513 -477 -7 7 250 390 323 481 146 183 295 323 386 364 53 25 78
26 85 6z m-1046 -960 c48 -25 51 -42 18 -99 -16 -27 -51 -93 -78 -146 -45 -90
-58 -106 -246 -296 -183 -184 -276 -264 -311 -264 -18 0 -17 57 3 117 29 90
152 328 214 415 125 175 257 284 348 287 13 1 36 -6 52 -14z m624 -1127 c-58
-114 -230 -378 -334 -513 -88 -113 -214 -239 -254 -255 -37 -14 -79 -13 -94 2
-52 52 91 290 298 499 103 104 395 337 407 325 2 -2 -8 -28 -23 -58z"/>
<path d="M2265 2746 c-258 -83 -539 -413 -820 -961 -68 -133 -92 -186 -206
-453 -64 -148 -129 -272 -147 -279 -8 -3 -18 0 -24 8 -26 38 20 449 122 1074
46 286 48 446 4 512 -26 40 -78 57 -134 43 -67 -16 -204 -100 -208 -128 -5
-31 9 -28 96 23 112 66 155 60 183 -22 15 -45 6 -187 -21 -358 -11 -66 -35
-239 -55 -385 -80 -600 -85 -782 -23 -840 66 -61 119 8 265 349 110 256 190
422 293 606 249 449 463 686 689 762 49 16 66 27 66 40 0 23 -28 26 -80 9z"/>
<path d="M2221 2403 c-27 -22 -32 -71 -10 -86 38 -24 98 53 69 88 -16 20 -33
19 -59 -2z"/>
</g>
</svg>
